<svg xmlns="http://www.w3.org/2000/svg" width="300" height="200" viewBox="0 0 300 200">

  <!-- Bubble -->
  <path d="M70 30a50 50 0 1 1 -14 92l-18 14 7 -24a50 50 0 0 1 25 -82z"
        fill="#2874f0"/>
  
  <!-- Check -->
  <path d="M55 95l28 28 42 -42"
        stroke="#ffffff"
        stroke-width="10"
        fill="none"
        stroke-linecap="round"
        stroke-linejoin="round"/>

  <!-- Reply (converted to path) -->
  <path fill="#2874f0" d="M135 110h-12V75h11c3 0 6 1 8 3 2 2 3 4 3 7v2c0 4-2 7-5 9l6 14h-7l-5-12h-4zM132 96h4c1 0 3-1 4-2 1-1 1-2 1-4v-1c0-2-1-3-2-4-1-1-3-1-4-1h-3zM151 110V75h7v35zM162 110V75h7v35zM181 110h-7V81h-8v-6h23v6h-8z"/>

  <!-- Politely (converted to path) -->
  <path fill="#000000" d="M195 110V75h12c5 0 9 2 11 4s3 5 3 9v9c0 4-1 7-3 9-3 3-6 4-11 4h-12zm7-6h5c3 0 4-1 5-2 1-1 2-3 2-6v-8c0-3-1-4-2-6-1-1-3-2-6-2h-4zM230 110V75h7v29h13v6zM257 110V75h7v35zM268 110V84h6v26zM283 110V84h-7v-6h21v6h-7v26z"/>

</svg>
